<svg xmlns="http://www.w3.org/2000/svg" xmlns:xlink="http://www.w3.org/1999/xlink" data-name="Layer 1" width="880" height="708.5700073242188"><rect id="backgroundrect" width="100%" height="100%" x="0" y="0" fill="none" stroke="none"/><defs><linearGradient id="f3037a3a-ca9c-44ad-820d-2abf4b00aaf0" x1="0.5" y1="1" x2="0.5" y2="0"><stop offset="0" stop-color="gray" stop-opacity="0.25"/><stop offset="0.54" stop-color="gray" stop-opacity="0.12"/><stop offset="1" stop-color="gray" stop-opacity="0.1"/></linearGradient><linearGradient id="a70f8c99-35f5-49a6-8b7d-4f5214e4d387" x1="0.5000000596046448" y1="1" x2="0.5000000596046448" y2="0"><stop offset="0" stop-color="#b3b3b3" stop-opacity="0.25"/><stop offset="0.54" stop-color="#b3b3b3" stop-opacity="0.1"/><stop offset="1" stop-color="#b3b3b3" stop-opacity="0.05"/></linearGradient><linearGradient id="4fd672ca-49a1-4acc-8871-0fd2bc3af50b" x1="255.5" y1="42.06999969482422" x2="255.5" y2="30.420000076293945" xlink:href="#a70f8c99-35f5-49a6-8b7d-4f5214e4d387"/><linearGradient id="527de121-8fb9-4e9a-bfeb-6bf3b12ddf98" x1="292.1700134277344" y1="69.25" x2="292.1700134277344" y2="57.599998474121094" xlink:href="#a70f8c99-35f5-49a6-8b7d-4f5214e4d387"/><linearGradient id="76703a65-20bd-40ee-b936-a2314b4e65bc" x1="440" y1="321.1400146484375" x2="440" y2="194.2899932861328" xlink:href="#f3037a3a-ca9c-44ad-820d-2abf4b00aaf0"/><linearGradient id="7e06630c-c107-466d-ba5a-d39eb4869e22" x1="87.30000305175781" y1="303.6700134277344" x2="87.30000305175781" y2="214.35000610351562" xlink:href="#a70f8c99-35f5-49a6-8b7d-4f5214e4d387"/><linearGradient id="64024240-2bee-44a2-98f2-c3338fae8d96" x1="255.5" y1="236.36000061035156" x2="255.5" y2="224.7100067138672" xlink:href="#a70f8c99-35f5-49a6-8b7d-4f5214e4d387"/><linearGradient id="df6f1b6e-a3ce-456d-88f8-a973e60fd6c1" x1="292.1700134277344" y1="263.5400085449219" x2="292.1700134277344" y2="251.88999938964844" xlink:href="#a70f8c99-35f5-49a6-8b7d-4f5214e4d387"/><linearGradient id="7d6446ca-5878-45bd-af0f-8e2754606c00" x1="440" y1="514.2899780273438" x2="440" y2="387.42999267578125" xlink:href="#f3037a3a-ca9c-44ad-820d-2abf4b00aaf0"/><linearGradient id="f86c7a62-0867-4bdc-be80-f22c48d46d50" x1="87.30000305175781" y1="496.80999755859375" x2="87.30000305175781" y2="407.489990234375" xlink:href="#a70f8c99-35f5-49a6-8b7d-4f5214e4d387"/><linearGradient id="34d7a9d4-14f7-4477-9569-e99019787794" x1="255.5" y1="429.5" x2="255.5" y2="417.8500061035156" xlink:href="#a70f8c99-35f5-49a6-8b7d-4f5214e4d387"/><linearGradient id="d49810fe-7d94-46b3-98b2-9fba8eecb6ae" x1="292.1700134277344" y1="456.67999267578125" x2="292.1700134277344" y2="445.0299987792969" xlink:href="#a70f8c99-35f5-49a6-8b7d-4f5214e4d387"/><linearGradient id="2744f56f-2e61-4887-afdf-980f321917da" x1="440" y1="708.5700073242188" x2="440" y2="581.7100219726562" xlink:href="#f3037a3a-ca9c-44ad-820d-2abf4b00aaf0"/><linearGradient id="695e60e5-3aad-46fe-856e-ca0324095340" x1="87.30000305175781" y1="691.0999755859375" x2="87.30000305175781" y2="601.780029296875" xlink:href="#a70f8c99-35f5-49a6-8b7d-4f5214e4d387"/><linearGradient id="3817817f-905c-4d93-a739-792a114f5d6c" x1="255.5" y1="623.780029296875" x2="255.5" y2="612.1300048828125" xlink:href="#a70f8c99-35f5-49a6-8b7d-4f5214e4d387"/><linearGradient id="dc613b25-7b46-43c8-b008-a384c95d9aa8" x1="292.1700134277344" y1="650.969970703125" x2="292.1700134277344" y2="639.3200073242188" xlink:href="#a70f8c99-35f5-49a6-8b7d-4f5214e4d387"/></defs><title>Posts</title><g class="currentLayer" style=""><title>Layer 1</title><rect width="880" height="126.86000061035156" rx="18.520000457763672" ry="18.520000457763672" fill="url(#f3037a3a-ca9c-44ad-820d-2abf4b00aaf0)" id="svg_1"/><rect x="41.31999969482422" y="20.059999465942383" width="91.95999908447266" height="89.31999969482422" rx="8.350000381469727" ry="8.350000381469727" fill="url(#a70f8c99-35f5-49a6-8b7d-4f5214e4d387)" id="svg_2"/><rect x="167.0399932861328" y="30.420000076293945" width="176.92999267578125" height="11.649999618530273" fill="url(#4fd672ca-49a1-4acc-8871-0fd2bc3af50b)" id="svg_3"/><rect x="167.0399932861328" y="57.599998474121094" width="250.25999450683594" height="11.649999618530273" fill="url(#527de121-8fb9-4e9a-bfeb-6bf3b12ddf98)" id="svg_4"/><rect y="194.2899932861328" width="880" height="126.86000061035156" rx="18.520000457763672" ry="18.520000457763672" fill="url(#76703a65-20bd-40ee-b936-a2314b4e65bc)" id="svg_5"/><rect x="41.31999969482422" y="214.35000610351562" width="91.95999908447266" height="89.31999969482422" rx="8.350000381469727" ry="8.350000381469727" fill="url(#7e06630c-c107-466d-ba5a-d39eb4869e22)" id="svg_6"/><rect x="167.0399932861328" y="224.7100067138672" width="176.92999267578125" height="11.649999618530273" fill="url(#64024240-2bee-44a2-98f2-c3338fae8d96)" id="svg_7"/><rect x="167.0399932861328" y="251.88999938964844" width="250.25999450683594" height="11.649999618530273" fill="url(#df6f1b6e-a3ce-456d-88f8-a973e60fd6c1)" id="svg_8"/><rect y="387.42999267578125" width="880" height="126.86000061035156" rx="18.520000457763672" ry="18.520000457763672" fill="url(#7d6446ca-5878-45bd-af0f-8e2754606c00)" id="svg_9"/><rect x="41.31999969482422" y="407.489990234375" width="91.95999908447266" height="89.31999969482422" rx="8.350000381469727" ry="8.350000381469727" fill="url(#f86c7a62-0867-4bdc-be80-f22c48d46d50)" id="svg_10"/><rect x="167.0399932861328" y="417.8500061035156" width="176.92999267578125" height="11.649999618530273" fill="url(#34d7a9d4-14f7-4477-9569-e99019787794)" id="svg_11"/><rect x="167.0399932861328" y="445.0299987792969" width="250.25999450683594" height="11.649999618530273" fill="url(#d49810fe-7d94-46b3-98b2-9fba8eecb6ae)" id="svg_12"/><rect y="581.7100219726562" width="880" height="126.86000061035156" rx="18.520000457763672" ry="18.520000457763672" fill="url(#2744f56f-2e61-4887-afdf-980f321917da)" id="svg_13"/><rect x="41.31999969482422" y="601.780029296875" width="91.95999908447266" height="89.31999969482422" rx="8.350000381469727" ry="8.350000381469727" fill="url(#695e60e5-3aad-46fe-856e-ca0324095340)" id="svg_14"/><rect x="167.0399932861328" y="612.1300048828125" width="176.92999267578125" height="11.649999618530273" fill="url(#3817817f-905c-4d93-a739-792a114f5d6c)" id="svg_15"/><rect x="167.0399932861328" y="639.3200073242188" width="250.25999450683594" height="11.649999618530273" fill="url(#dc613b25-7b46-43c8-b008-a384c95d9aa8)" id="svg_16"/><rect x="8" y="4.570000171661377" width="864" height="112" rx="18.520000457763672" ry="18.520000457763672" fill="#fff" id="svg_17" class=""/><rect x="172" y="31.43000030517578" width="173.7100067138672" height="10.289999961853027" fill="#bdbdbd" id="svg_19"/><rect x="172" y="55.43000030517578" width="245.7100067138672" height="10.289999961853027" fill="#e0e0e0" id="svg_20"/><rect x="8" y="198.86000061035156" width="864" height="112" rx="18.520000457763672" ry="18.520000457763672" fill="#fff" id="svg_21" class=""/><rect x="172" y="225.7100067138672" width="173.7100067138672" height="10.289999961853027" fill="#bdbdbd" id="svg_23"/><rect x="172" y="249.7100067138672" width="245.7100067138672" height="10.289999961853027" fill="#64ffda" id="svg_24"/><rect x="8" y="393.1400146484375" width="864" height="112" rx="18.520000457763672" ry="18.520000457763672" fill="#fff" id="svg_25" class=""/><rect x="172" y="420" width="173.7100067138672" height="10.289999961853027" fill="#bdbdbd" id="svg_27"/><rect x="172" y="444" width="245.7100067138672" height="10.289999961853027" fill="#e0e0e0" id="svg_28"/><rect x="8" y="587.4299926757812" width="864" height="112" rx="18.520000457763672" ry="18.520000457763672" fill="#fff" id="svg_29" class=""/><rect x="172" y="614.2899780273438" width="173.7100067138672" height="10.289999961853027" fill="#bdbdbd" id="svg_31"/><rect x="172" y="638.2899780273438" width="245.7100067138672" height="10.289999961853027" fill="#64ffda" id="svg_32"/><g class="" id="svg_33"><rect x="53.73128890991211" y="19.7093563079834" width="74.16096496582031" height="73.05355834960938" rx="50" ry="50" fill="#d8a730" id="svg_18" class=""/><rect x="60.828060150146484" y="26.160968780517578" width="60.612579345703125" height="59.50516891479492" rx="50" ry="50" fill="#ffffff" class="" id="svg_36" fill-opacity="1"/></g><g class="" id="svg_40"><rect x="51.79580307006836" y="411.322265625" width="74.16096496582031" height="73.05355834960938" rx="50" ry="50" fill="#d8a730" id="svg_41" class=""/><rect x="58.892574310302734" y="417.7738952636719" width="60.612579345703125" height="59.50516891479492" rx="50" ry="50" fill="#ffffff" class="" id="svg_42" fill-opacity="1"/></g><g class="" id="svg_43"><rect x="51.15064239501953" y="603.580322265625" width="74.16096496582031" height="73.05355834960938" rx="50" ry="50" fill="#d8a730" id="svg_44" class=""/><rect x="58.247413635253906" y="610.031982421875" width="60.612579345703125" height="59.50516891479492" rx="50" ry="50" fill="#ffffff" class="" id="svg_45" fill-opacity="1"/></g><g class="" id="svg_34"><rect x="51.79580307006836" y="215.83839416503906" width="74.16096496582031" height="73.05355834960938" rx="50" ry="50" fill="#d8a730" id="svg_35" class=""/><rect x="58.892574310302734" y="222.29000854492188" width="60.612579345703125" height="59.50516891479492" rx="50" ry="50" fill="#ffffff" class="" id="svg_38" fill-opacity="1"/></g><g class="" stroke-opacity="1" stroke="#333333"><path fill="#d8a730" fill-opacity="1" stroke="#333333" stroke-opacity="1" stroke-width="5" stroke-dasharray="none" stroke-linejoin="miter" stroke-linecap="butt" stroke-dashoffset="" fill-rule="nonzero" opacity="1" marker-start="" marker-mid="" marker-end="" d="M55.09677919413741,27.539752309775487 L125.41935861867478,85.60426768708211 " id="svg_37" class=""/><path fill="#d8a730" fill-opacity="1" stroke="#333333" stroke-opacity="1" stroke-width="5" stroke-dasharray="none" stroke-linejoin="miter" stroke-linecap="butt" stroke-dashoffset="" fill-rule="nonzero" opacity="1" marker-start="" marker-mid="" marker-end="" d="M54.45162942673858,28.184912984824315 L124.77420885127594,86.24942836213094 " class="" id="svg_39" transform="rotate(-90 89.6129150390625,57.217170715332024) "/></g></g></svg>