<svg xmlns="http://www.w3.org/2000/svg" xmlns:xlink="http://www.w3.org/1999/xlink" data-name="Layer 1" width="1096" height="574.739990234375"><rect id="backgroundrect" width="100%" height="100%" x="0" y="0" fill="none" stroke="none"/><defs><linearGradient id="eb6c86d6-45fa-49e0-9a60-1b0612516196" x1="0.4995380640029907" y1="1.0002461671829224" x2="0.4995380640029907" y2="0"><stop offset="0" stop-color="gray" stop-opacity="0.25"/><stop offset="0.54" stop-color="gray" stop-opacity="0.12"/><stop offset="1" stop-color="gray" stop-opacity="0.1"/></linearGradient><pattern id="ad310e25-2b04-44c8-bb7b-982389166780" data-name="New Pattern 3" width="36.880001068115234" height="49.47999954223633" patternUnits="userSpaceOnUse" viewBox="0 0 36.88 49.48"><rect width="36.880001068115234" height="49.47999954223633" fill="none" id="svg_1"/><path d="M4.33,13.19c4.5,0,4.51-7,0-7s-4.52,7,0,7Z" id="svg_2"/><path d="M4.51,17.16c4.51,0,4.52-7,0-7s-4.51,7,0,7Z" id="svg_3"/><path d="M4.51,20.94c4.51,0,4.52-7,0-7s-4.51,7,0,7Z" id="svg_4"/><path d="M3.38,24.72c4.51,0,4.51-7,0-7s-4.51,7,0,7Z" id="svg_5"/><path d="M1.09,28.29l.2.38a3.52,3.52,0,0,0,4.78,1.25,3.58,3.58,0,0,0,1.26-4.79l-.19-.37A3.52,3.52,0,0,0,2.35,23.5a3.59,3.59,0,0,0-1.26,4.79Z" id="svg_6"/><path d="M1.49,30.1l.18.57a3.73,3.73,0,0,0,1.61,2.09,3.59,3.59,0,0,0,2.7.35A3.54,3.54,0,0,0,8.42,28.8l-.18-.56a3.68,3.68,0,0,0-1.61-2.1,3.61,3.61,0,0,0-2.69-.35A3.56,3.56,0,0,0,1.49,30.1Z" id="svg_7"/><path d="M1.58,33.88v.38a3.54,3.54,0,0,0,3.5,3.5,3.56,3.56,0,0,0,3.5-3.5v-.38a3.54,3.54,0,0,0-3.5-3.5,3.57,3.57,0,0,0-3.5,3.5Z" id="svg_8"/><path d="M4.89,42.3c4.51,0,4.51-7,0-7s-4.51,7,0,7Z" id="svg_9"/><path d="M1.77,42v.19a3.54,3.54,0,0,0,3.5,3.5,3.56,3.56,0,0,0,3.5-3.5V42a3.54,3.54,0,0,0-3.5-3.5A3.56,3.56,0,0,0,1.77,42Z" id="svg_10"/><path d="M6,49.29c4.5,0,4.51-7,0-7s-4.52,7,0,7Z" id="svg_11"/><path d="M10,14.14c4.5,0,4.51-7,0-7s-4.52,7,0,7Z" id="svg_12"/><path d="M6.59,20.94c4.51,0,4.52-7,0-7s-4.51,7,0,7Z" id="svg_13"/><path d="M8.48,27c4.51,0,4.51-7,0-7s-4.51,7,0,7Z" id="svg_14"/><path d="M8.48,29.26c4.51,0,4.51-7,0-7s-4.51,7,0,7Z" id="svg_15"/><path d="M14.91,33.79c4.5,0,4.51-7,0-7s-4.51,7,0,7Z" id="svg_16"/><path d="M9.81,38.52c4.5,0,4.51-7,0-7s-4.52,7,0,7Z" id="svg_17"/><path d="M10.56,45.13c4.51,0,4.51-7,0-7s-4.51,7,0,7Z" id="svg_18"/><path d="M10.56,49.48c4.51,0,4.51-7,0-7s-4.51,7,0,7Z" id="svg_19"/><path d="M12.83,18.12c2.57,0,2.58-4,0-4s-2.58,4,0,4Z" id="svg_20"/><path d="M13,20.39c2.57,0,2.58-4,0-4s-2.58,4,0,4Z" id="svg_21"/><path d="M13.1,21v.19a2,2,0,0,0,4,0V21a2,2,0,0,0-4,0Z" id="svg_22"/><path d="M15.1,25.87c2.57,0,2.58-4,0-4s-2.58,4,0,4Z" id="svg_23"/><path d="M16.61,11.07a1,1,0,0,0,0-2,1,1,0,0,0,0,2Z" id="svg_24"/><path d="M21.71,16.55a1,1,0,0,0,0-2,1,1,0,0,0,0,2Z" id="svg_25"/><path d="M16.85,8.94V8.56a1,1,0,0,0-2,0v.38a1,1,0,0,0,2,0Z" id="svg_26"/><path d="M16.48,4.78V4.59a1,1,0,0,0-2,0v.19a1,1,0,0,0,2,0Z" id="svg_27"/><path d="M15.48,2a1,1,0,0,0,0-2,1,1,0,0,0,0,2Z" id="svg_28"/><path d="M10.56,2a1,1,0,0,0,0-2,1,1,0,0,0,0,2Z" id="svg_29"/><path d="M10.37,4.65a1,1,0,0,0,0-2,1,1,0,0,0,0,2Z" id="svg_30"/><path d="M7.35,6.16a1,1,0,0,0,0-2,1,1,0,0,0,0,2Z" id="svg_31"/><path d="M11.88,7.1h.38a1,1,0,0,0,0-2h-.38a1,1,0,0,0,0,2Z" id="svg_32"/><path d="M13.28,11l.57,1.32a1,1,0,0,0,1.37.36,1,1,0,0,0,.36-1.37L15,10a1,1,0,0,0-1.37-.36A1,1,0,0,0,13.28,11Z" id="svg_33"/><path d="M18.44,19.33v.19a1,1,0,0,0,2,0v-.19a1,1,0,0,0-2,0Z" id="svg_34"/><path d="M20.68,24.93l.19.38c.57,1.15,2.3.14,1.72-1l-.19-.38c-.57-1.15-2.3-.14-1.72,1Z" id="svg_35"/><path d="M22.13,29.38a2.48,2.48,0,0,0-.84,1.86,1,1,0,0,0,2,0,.56.56,0,0,1,.25-.44,1,1,0,0,0,0-1.42,1,1,0,0,0-1.41,0Z" id="svg_36"/><path d="M20.32,33.41l-.54,1.71c-.38,1.23,1.55,1.76,1.93.53l.54-1.71c.38-1.23-1.55-1.76-1.93-.53Z" id="svg_37"/><path d="M19.44,37h-.19a1,1,0,0,0,0,2h.19a1,1,0,0,0,0-2Z" id="svg_38"/><path d="M17.64,41.5l-.19.38c-.58,1.15,1.15,2.16,1.72,1l.19-.38c.58-1.15-1.15-2.16-1.72-1Z" id="svg_39"/><path d="M15.8,47.87v.56a1,1,0,0,0,2,0v-.56a1,1,0,0,0-2,0Z" id="svg_40"/><path d="M14.34,49.43a1,1,0,0,0,0-2,1,1,0,0,0,0,2Z" id="svg_41"/><path d="M14.34,41.31a1,1,0,0,0,0-2,1,1,0,0,0,0,2Z" id="svg_42"/><path d="M17.13,36.47a2,2,0,0,0,1-1.64,1,1,0,0,0-2,0c0-.13.19-.2,0-.08-1.15.58-.14,2.3,1,1.72Z" id="svg_43"/><path d="M17.37,31.29a1,1,0,0,0,0-2,1,1,0,0,0,0,2Z" id="svg_44"/><path d="M18.12,28.46a1,1,0,0,0,0-2,1,1,0,0,0,0,2Z" id="svg_45"/><path d="M19,24.94l.19-.38c.58-1.15-1.15-2.16-1.72-1l-.19.38c-.58,1.15,1.15,2.16,1.72,1Z" id="svg_46"/><path d="M17.93,16a1,1,0,0,0,0-2,1,1,0,0,0,0,2Z" id="svg_47"/><path d="M24.64,16.05l.57.94a1,1,0,0,0,1.72-1L26.37,15a1,1,0,0,0-1.73,1Z" id="svg_48"/><path d="M34.88,29.72v.19a1,1,0,0,0,2,0v-.19a1,1,0,0,0-2,0Z" id="svg_49"/><path d="M24,39.23a1,1,0,0,0,0-2,1,1,0,0,0,0,2Z" id="svg_50"/><path d="M22.85,29a1,1,0,0,0,0-2,1,1,0,0,0,0,2Z" id="svg_51"/><path d="M18.24,21.9l.57-.56c.93-.89-.48-2.3-1.41-1.41l-.58.56c-.93.89.49,2.3,1.42,1.41Z" id="svg_52"/></pattern><linearGradient id="a964f849-fa65-4178-8cc4-fb8fb10b3617" x1="462.9100036621094" y1="660.6799926757812" x2="462.9100036621094" y2="559.6900024414062" xlink:href="#eb6c86d6-45fa-49e0-9a60-1b0612516196"/></defs><title>contact us</title><g class="currentLayer" style=""><title>Layer 1</title><g opacity="0.1" id="svg_53"><ellipse cx="479.4200134277344" cy="362.1199951171875" rx="11.380000114440918" ry="14.899999618530273" fill="#3f3d56" id="svg_54"/><path d="M488.42999999999995,298.3699951171875 a18,18 0 0 0 2.38,-9.11 c0,-8.23 -5.1,-14.9 -11.39,-14.9 S468,281.0499951171875 468,289.2799951171875 a18,18 0 0 0 2.38,9.11 a18.61,18.61 0 0 0 0,18.21 a18.61,18.61 0 0 0 0,18.21 a17.94,17.94 0 0 0 -2.38,9.11 c0,8.22 5.1,14.9 11.38,14.9 s11.39,-6.68 11.39,-14.9 a17.94,17.94 0 0 0 -2.38,-9.11 a18.61,18.61 0 0 0 0,-18.21 a18.61,18.61 0 0 0 0,-18.21 z" fill="#3f3d56" id="svg_55"/><ellipse cx="479.4200134277344" cy="271.07000732421875" rx="11.380000114440918" ry="14.899999618530273" fill="#3f3d56" id="svg_56"/><ellipse cx="479.4200134277344" cy="252.86000061035156" rx="11.380000114440918" ry="14.899999618530273" fill="#3f3d56" id="svg_57"/><path d="M436.82,128.2299951171875 a53.08,53.08 0 0 1 -4.24,-6.24 l29.9,-4.91 l-32.34,0.24000000000000002 a54.62,54.62 0 0 1 -1,-43.2 l43.39,22.51 l-40,-29.42 a54.53,54.53 0 1 1 90,61 a54.54,54.54 0 0 1 6.22,9.94 L489.91999999999996,158.3699951171875 l41.39,-13.89 a54.53,54.53 0 0 1 -8.79,51.2 a54.52,54.52 0 1 1 -85.7,0 a54.52,54.52 0 0 1 0,-67.42 z" fill="#d8a730" id="svg_58"/><path d="M534.19,161.9399951171875 a54.27,54.27 0 0 1 -11.67,33.71 a54.52,54.52 0 1 1 -85.7,0 C429.51,186.3699951171875 534.19,155.8199951171875 534.19,161.9399951171875 z" opacity="0.1" id="svg_59"/></g><g opacity="0.1" id="svg_60"><ellipse cx="612.280029296875" cy="330.260009765625" rx="8.510000228881836" ry="11.130000114440918" fill="#3f3d56" id="svg_61"/><path d="M619,282.6299951171875 a13.43,13.43 0 0 0 1.77,-6.8 c0,-6.15 -3.81,-11.14 -8.5,-11.14 s-8.51,5 -8.51,11.14 a13.33,13.33 0 0 0 1.78,6.8 a13.9,13.9 0 0 0 0,13.61 a13.9,13.9 0 0 0 0,13.61 a13.33,13.33 0 0 0 -1.78,6.8 c0,6.15 3.81,11.14 8.51,11.14 s8.5,-5 8.5,-11.14 a13.43,13.43 0 0 0 -1.77,-6.8 a14,14 0 0 0 0,-13.61 a14,14 0 0 0 0,-13.61 z" fill="#3f3d56" id="svg_62"/><ellipse cx="612.280029296875" cy="262.2200012207031" rx="8.510000228881836" ry="11.130000114440918" fill="#3f3d56" id="svg_63"/><ellipse cx="612.280029296875" cy="248.61000061035156" rx="8.510000228881836" ry="11.130000114440918" fill="#3f3d56" id="svg_64"/><path d="M580.44,155.4799951171875 a39,39 0 0 1 -3.17,-4.66 l22.35,-3.67 l-24.17,0.18000000000000002 a40.84,40.84 0 0 1 -0.78,-32.29 L607.1,131.8699951171875 l-29.91,-22 a40.75,40.75 0 1 1 67.29,45.6 a41.2,41.2 0 0 1 4.65,7.43 l-29,15.07 l30.93,-10.38 a40.76,40.76 0 0 1 -6.57,38.26 a40.74,40.74 0 1 1 -64,0 a40.74,40.74 0 0 1 0,-50.38 z" fill="#d8a730" id="svg_65"/><path d="M653.2,180.6699951171875 a40.57,40.57 0 0 1 -8.72,25.19 a40.74,40.74 0 1 1 -64,0 C575,198.9299951171875 653.2,176.09999511718752 653.2,180.6699951171875 z" opacity="0.1" id="svg_66"/></g><g opacity="0.1" id="svg_67"><ellipse cx="1038.5799560546875" cy="322.1199951171875" rx="11.380000114440918" ry="14.899999618530273" fill="#3f3d56" id="svg_68"/><path d="M1029.57,258.3699951171875 a18,18 0 0 1 -2.38,-9.11 c0,-8.23 5.1,-14.9 11.39,-14.9 s11.38,6.67 11.38,14.9 a18,18 0 0 1 -2.38,9.11 a18.61,18.61 0 0 1 0,18.21 a18.61,18.61 0 0 1 0,18.21 a17.94,17.94 0 0 1 2.38,9.11 c0,8.22 -5.1,14.9 -11.38,14.9 s-11.39,-6.68 -11.39,-14.9 a17.94,17.94 0 0 1 2.38,-9.11 a18.61,18.61 0 0 1 0,-18.21 a18.61,18.61 0 0 1 0,-18.21 z" fill="#3f3d56" id="svg_69"/><ellipse cx="1038.5799560546875" cy="231.07000732421875" rx="11.380000114440918" ry="14.899999618530273" fill="#3f3d56" id="svg_70"/><ellipse cx="1038.5799560546875" cy="212.86000061035156" rx="11.380000114440918" ry="14.899999618530273" fill="#3f3d56" id="svg_71"/><path d="M1081.18,88.22999511718751 a53.08,53.08 0 0 0 4.24,-6.24 l-29.9,-4.91 l32.34,0.24000000000000002 a54.62,54.62 0 0 0 1,-43.2 l-43.39,22.51 l40,-29.42 a54.53,54.53 0 1 0 -90,61 a54.54,54.54 0 0 0 -6.22,9.94 L1028.08,118.3699951171875 l-41.39,-13.89 a54.53,54.53 0 0 0 8.79,51.2 a54.52,54.52 0 1 0 85.7,0 a54.52,54.52 0 0 0 0,-67.42 z" fill="#d8a730" id="svg_72"/><path d="M983.81,121.9399951171875 a54.27,54.27 0 0 0 11.67,33.71 a54.52,54.52 0 1 0 85.7,0 C1088.49,146.3699951171875 983.81,115.81999511718749 983.81,121.9399951171875 z" opacity="0.1" id="svg_73"/></g><g opacity="0.1" id="svg_74"><ellipse cx="928.719970703125" cy="324.260009765625" rx="8.510000228881836" ry="11.130000114440918" fill="#3f3d56" id="svg_75"/><path d="M922,276.6299951171875 a13.43,13.43 0 0 1 -1.77,-6.8 c0,-6.15 3.81,-11.14 8.5,-11.14 s8.51,5 8.51,11.14 a13.33,13.33 0 0 1 -1.78,6.8 a13.9,13.9 0 0 1 0,13.61 a13.9,13.9 0 0 1 0,13.61 a13.33,13.33 0 0 1 1.78,6.8 c0,6.15 -3.81,11.14 -8.51,11.14 s-8.5,-5 -8.5,-11.14 a13.43,13.43 0 0 1 1.77,-6.8 a14,14 0 0 1 0,-13.61 a14,14 0 0 1 0,-13.61 z" fill="#3f3d56" id="svg_76"/><ellipse cx="928.719970703125" cy="256.2200012207031" rx="8.510000228881836" ry="11.130000114440918" fill="#3f3d56" id="svg_77"/><ellipse cx="928.719970703125" cy="242.61000061035156" rx="8.510000228881836" ry="11.130000114440918" fill="#3f3d56" id="svg_78"/><path d="M960.56,149.4799951171875 a39,39 0 0 0 3.17,-4.66 l-22.35,-3.67 l24.17,0.18000000000000002 a40.84,40.84 0 0 0 0.78,-32.29 L933.9,125.8699951171875 l29.91,-22 a40.75,40.75 0 1 0 -67.29,45.6 a41.2,41.2 0 0 0 -4.65,7.43 l29,15.07 L890,161.59999511718752 a40.76,40.76 0 0 0 6.57,38.26 a40.74,40.74 0 1 0 64,0 a40.74,40.74 0 0 0 0,-50.38 z" fill="#d8a730" id="svg_79"/><path d="M887.8,174.6699951171875 a40.57,40.57 0 0 0 8.72,25.19 a40.74,40.74 0 1 0 64,0 C966,192.9299951171875 887.8,170.09999511718752 887.8,174.6699951171875 z" opacity="0.1" id="svg_80"/></g><g opacity="0.1" id="svg_81"><ellipse cx="61.59000015258789" cy="322.1199951171875" rx="11.380000114440918" ry="14.899999618530273" fill="#3f3d56" id="svg_82"/><path d="M70.59,258.3699951171875 a18,18 0 0 0 2.38,-9.11 c0,-8.23 -5.1,-14.9 -11.38,-14.9 s-11.38,6.67 -11.38,14.9 a18,18 0 0 0 2.37,9.11 a18.67,18.67 0 0 0 0,18.21 a18.67,18.67 0 0 0 0,18.21 a17.93,17.93 0 0 0 -2.37,9.11 c0,8.22 5.09,14.9 11.38,14.9 S73,312.1399951171875 73,303.9199951171875 a17.94,17.94 0 0 0 -2.38,-9.11 a18.61,18.61 0 0 0 0,-18.21 a18.61,18.61 0 0 0 0,-18.21 z" fill="#3f3d56" id="svg_83"/><ellipse cx="61.59000015258789" cy="231.07000732421875" rx="11.380000114440918" ry="14.899999618530273" fill="#3f3d56" id="svg_84"/><ellipse cx="61.59000015258789" cy="212.86000061035156" rx="11.380000114440918" ry="14.899999618530273" fill="#3f3d56" id="svg_85"/><path d="M19,88.22999511718751 a54.33,54.33 0 0 1 -4.24,-6.24 l29.91,-4.91 L12.299999999999997,77.3699951171875 a54.62,54.62 0 0 1 -1,-43.2 l43.4,22.51 l-40,-29.42 a54.52,54.52 0 1 1 90,61 a54.54,54.54 0 0 1 6.22,9.94 L72.08,118.3699951171875 l41.4,-13.89 a54.59,54.59 0 0 1 -8.8,51.2 a54.52,54.52 0 1 1 -85.7,0 a54.52,54.52 0 0 1 0,-67.42 z" fill="#d8a730" id="svg_86"/><path d="M116.35,121.9399951171875 a54.27,54.27 0 0 1 -11.67,33.71 a54.52,54.52 0 1 1 -85.7,0 C11.670000000000002,146.3699951171875 116.35,115.81999511718749 116.35,121.9399951171875 z" opacity="0.1" id="svg_87"/></g><g opacity="0.1" id="svg_88"><ellipse cx="171.44000244140625" cy="324.260009765625" rx="8.510000228881836" ry="11.130000114440918" fill="#3f3d56" id="svg_89"/><path d="M178.17,276.6299951171875 a13.43,13.43 0 0 0 1.77,-6.8 c0,-6.15 -3.8,-11.14 -8.5,-11.14 s-8.51,5 -8.51,11.14 a13.43,13.43 0 0 0 1.78,6.8 a13.9,13.9 0 0 0 0,13.61 a13.9,13.9 0 0 0 0,13.61 a13.43,13.43 0 0 0 -1.78,6.8 c0,6.15 3.81,11.14 8.51,11.14 s8.5,-5 8.5,-11.14 a13.43,13.43 0 0 0 -1.77,-6.8 a14,14 0 0 0 0,-13.61 a14,14 0 0 0 0,-13.61 z" fill="#3f3d56" id="svg_90"/><ellipse cx="171.44000244140625" cy="256.2200012207031" rx="8.510000228881836" ry="11.130000114440918" fill="#3f3d56" id="svg_91"/><ellipse cx="171.44000244140625" cy="242.61000061035156" rx="8.510000228881836" ry="11.130000114440918" fill="#3f3d56" id="svg_92"/><path d="M139.6,149.4799951171875 a40.21,40.21 0 0 1 -3.17,-4.66 l22.35,-3.67 l-24.17,0.18000000000000002 a40.84,40.84 0 0 1 -0.78,-32.29 l32.43,16.83 l-29.91,-22 a40.75,40.75 0 1 1 67.29,45.6 a40.12,40.12 0 0 1 4.65,7.43 l-29,15.07 l30.93,-10.38 a40.76,40.76 0 0 1 -6.57,38.26 a40.74,40.74 0 1 1 -64,0 a40.74,40.74 0 0 1 0,-50.38 z" fill="#d8a730" id="svg_93"/><path d="M212.36,174.6699951171875 a40.57,40.57 0 0 1 -8.72,25.19 a40.74,40.74 0 1 1 -64,0 C134.14,192.9299951171875 212.36,170.09999511718752 212.36,174.6699951171875 z" opacity="0.1" id="svg_94"/></g><ellipse cx="548" cy="493.1300048828125" rx="548" ry="8.859999656677246" fill="#d8a730" opacity="0.1" id="svg_95" class=""/><ellipse cx="548" cy="565.8800048828125" rx="548" ry="8.859999656677246" fill="#d8a730" opacity="0.1" id="svg_96"/><ellipse cx="548" cy="341.29998779296875" rx="548" ry="8.859999656677246" fill="#d8a730" opacity="0.1" id="svg_97"/><ellipse cx="548" cy="417.2099914550781" rx="548" ry="8.859999656677246" fill="#d8a730" opacity="0.1" id="svg_98"/><path d="M808.79,110.3699951171875 a18.3,18.3 0 0 0 -10.6,1.1600000000000001 a15.65,15.65 0 0 1 -12.74,0 a17.88,17.88 0 0 0 -15,0.29000000000000004 a9.24,9.24 0 0 1 -4.3100000000000005,1.08 c-6.08,0 -11.13,-6.12 -12.18,-14.19 a11.88,11.88 0 0 0 3,-3.27 c3.56,-5.74 9.07,-9.43 15.27,-9.43 s11.64,3.64 15.2,9.32 a11.68,11.68 0 0 0 10.09,5.54 h0.16000000000000003 C802.57,100.81999511718749 806.76,104.69999511718748 808.79,110.3699951171875 z" fill="#d8a730" opacity="0.1" id="svg_99"/><path d="M827.3,85.0199951171875 l-9.82,6.22 l6,-10.84 a9.7,9.7 0 0 0 -5.94,-2.11 h-0.16000000000000003 a11.35,11.35 0 0 1 -2,-0.15000000000000002 L812,80.2499951171875 l1.4300000000000002,-2.6 a11.79,11.79 0 0 1 -5.83,-4.42 l-6,3.7800000000000002 l3.7600000000000002,-6.84 c-3.48,-4.18 -8.18,-6.74 -13.34,-6.74 c-6.2,0 -11.71,3.68 -15.28,9.42 a11.41,11.41 0 0 1 -10.09,5.44 h-0.33000000000000007 c-6.84,0 -12.38,7.75 -12.38,17.31 s5.54,17.32 12.38,17.32 a9.39,9.39 0 0 0 4.3100000000000005,-1.08 a17.86,17.86 0 0 1 15,-0.30000000000000004 a15.55,15.55 0 0 0 12.74,0 a17.92,17.92 0 0 1 14.86,0.29000000000000004 a9.3,9.3 0 0 0 4.26,1.06 c6.84,0 12.38,-7.76 12.38,-17.32 A21.93,21.93 0 0 0 827.3,85.0199951171875 z" fill="#d8a730" opacity="0.1" id="svg_100"/><path d="M391.26,104.95999511718747 a12.84,12.84 0 0 0 -7.43,0.81 a10.92,10.92 0 0 1 -8.91,0 a12.48,12.48 0 0 0 -10.49,0.21000000000000002 a6.62,6.62 0 0 1 -3,0.7500000000000001 c-4.25,0 -7.79,-4.28 -8.53,-9.93 a8.32,8.32 0 0 0 2.13,-2.29 c2.49,-4 6.35,-6.6 10.69,-6.6 s8.15,2.55 10.64,6.52 a8.19,8.19 0 0 0 7.07,3.88 h0.11000000000000001 C386.9,98.28999511718752 389.83,101.00999511718749 391.26,104.95999511718747 z" fill="#d8a730" opacity="0.1" id="svg_101"/><path d="M404.21,87.22999511718751 l-6.87,4.36 l4.17,-7.59 a6.75,6.75 0 0 0 -4.15,-1.48 h-0.12000000000000001 a7.49,7.49 0 0 1 -1.42,-0.11000000000000001 l-2.33,1.48 l1,-1.82 a8.3,8.3 0 0 1 -4.08,-3.09 l-4.17,2.64 l2.64,-4.78 a12.21,12.21 0 0 0 -9.34,-4.73 c-4.34,0 -8.2,2.58 -10.69,6.6 a8,8 0 0 1 -7.07,3.81 h-0.23 c-4.79,0 -8.67,5.42 -8.67,12.12 s3.88,12.12 8.67,12.12 a6.5,6.5 0 0 0 3,-0.7600000000000001 a12.5,12.5 0 0 1 10.48,-0.2 a11.1,11.1 0 0 0 4.49,1 a11,11 0 0 0 4.43,-0.9400000000000001 a12.54,12.54 0 0 1 10.4,0.2 a6.48,6.48 0 0 0 3,0.7400000000000001 c4.78,0 8.66,-5.43 8.66,-12.12 A15.33,15.33 0 0 0 404.21,87.22999511718751 z" fill="#d8a730" opacity="0.1" id="svg_102"/><path d="M269.59,183.3699951171875 a12.82,12.82 0 0 1 7.42,0.81 a10.94,10.94 0 0 0 8.92,0 a12.52,12.52 0 0 1 10.49,0.2 a6.47,6.47 0 0 0 3,0.7600000000000001 c4.25,0 7.79,-4.29 8.52,-9.94 a8.15,8.15 0 0 1 -2.12,-2.29 c-2.5,-4 -6.36,-6.59 -10.69,-6.59 s-8.15,2.54 -10.65,6.52 a8.19,8.19 0 0 1 -7.06,3.88 h-0.11000000000000001 C273.94,176.7399951171875 271,179.44999511718748 269.59,183.3699951171875 z" fill="#d8a730" opacity="0.1" id="svg_103"/><path d="M256.63,165.6699951171875 l6.88,4.36 l-4.18,-7.58 a6.79,6.79 0 0 1 4.16,-1.49 h0.11000000000000001 a8.52,8.52 0 0 0 1.4300000000000002,-0.1 l2.33,1.47 l-1,-1.81 a8.29,8.29 0 0 0 4.07,-3.09 l4.17,2.64 L272,155.27999511718753 a12.2,12.2 0 0 1 9.34,-4.72 c4.33,0 8.2,2.58 10.69,6.6 a8,8 0 0 0 7.06,3.81 h0.24000000000000002 c4.78,0 8.66,5.43 8.66,12.12 s-3.88,12.12 -8.66,12.12 a6.49,6.49 0 0 1 -3,-0.7500000000000001 a12.48,12.48 0 0 0 -10.49,-0.21000000000000002 a10.86,10.86 0 0 1 -4.48,1 a11,11 0 0 1 -4.44,-0.9400000000000001 a12.52,12.52 0 0 0 -10.39,0.2 a6.48,6.48 0 0 1 -3,0.7400000000000001 c-4.79,0 -8.67,-5.42 -8.67,-12.12 A15.44,15.44 0 0 1 256.63,165.6699951171875 z" fill="#d8a730" opacity="0.1" id="svg_104"/><path d="M664.31,490.2599951171875 c2.6100000000000003,-4.84 -0.35000000000000003,-10.76 -3.75,-15.07 s-7.5600000000000005,-8.8 -7.47,-14.29 c0.13,-7.890000000000001 8.51,-12.56 15.2,-16.74 a74.3,74.3 0 0 0 13.65,-11 a20.13,20.13 0 0 0 4.19,-5.62 c1.3900000000000001,-3.08 1.35,-6.6 1.26,-10 q-0.43000000000000005,-16.89 -1.6700000000000002,-33.76 " fill="none" stroke="#3f3d56" stroke-miterlimit="10" stroke-width="4" id="svg_105"/><path d="M698.45,383.2199951171875 a12.31,12.31 0 0 0 -6.15,-10.09 l-2.7600000000000002,5.45 l0.09000000000000002,-6.6 a12.31,12.31 0 1 0 8.82,11.24 z" fill="#d8a730" id="svg_106"/><path d="M676.49,466.53999511718746 a12.31,12.31 0 0 1 -23.24,-5 a12,12 0 0 1 0.8,-5 a12.32,12.32 0 0 1 23,0.13 l-7.69,6.26 l8.46,-2 A12.24,12.24 0 0 1 676.49,466.53999511718746 z" fill="#d8a730" id="svg_107"/><path d="M670.41,442.6399951171875 a12.31,12.31 0 0 1 -3.9,-24.15 l-0.07,5.07 l2.79,-5.52 h0 a12.31,12.31 0 1 1 1.15,24.6 z" fill="#d8a730" id="svg_108"/><path d="M700.3,422.7499951171875 a12.31,12.31 0 1 1 5.44,-23 l-2.17,6 L708,401.3699951171875 a12.31,12.31 0 0 1 -7.74,21.37 z" fill="#d8a730" id="svg_109"/><path d="M696.79,386.4999951171875 c-2.84,0.31000000000000005 -5.6,1.19 -8.46,1.37 s-6,-0.51 -7.78,-2.72 a39.48,39.48 0 0 1 -2.2800000000000002,-4 a8.76,8.76 0 0 0 -3.1,-2.92 a12.31,12.31 0 1 0 23,8.18 C697.72,386.41999511718745 697.25,386.44999511718754 696.79,386.4999951171875 z" opacity="0.1" id="svg_110"/><path d="M700.3,422.7499951171875 a12.31,12.31 0 0 1 -11.71,-17.56 a9.11,9.11 0 0 1 2.47,2.48 a41.72,41.72 0 0 0 2.44,4.07 c1.92,2.25 5.2,3 8.17,2.85 s5.84,-1 8.8,-1.25 c0.41000000000000003,0 0.8200000000000001,-0.06000000000000001 1.24,-0.07 A12.31,12.31 0 0 1 700.3,422.7499951171875 z" opacity="0.1" id="svg_111"/><path d="M670.41,442.6399951171875 a12.31,12.31 0 0 1 -11.81,-17.33 a10,10 0 0 1 2.6100000000000003,2.5 a41.23,41.23 0 0 0 2.67,4.15 c2.07,2.31 5.57,3.13 8.71,3 s6,-0.81 9,-1 A12.33,12.33 0 0 1 670.41,442.6399951171875 z" opacity="0.1" id="svg_112"/><path d="M676.49,466.53999511718746 a12.31,12.31 0 0 1 -23.24,-5 a12,12 0 0 1 0.8,-5 a12.29,12.29 0 0 1 2.7,2.41 c1.17,1.42 1.94,3 3.3,4.37 c2.51,2.47 6.58,3.49 10.19,3.58 A51.7,51.7 0 0 0 676.49,466.53999511718746 z" opacity="0.1" id="svg_113"/><path d="M54.31,418.2599951171875 c2.6100000000000003,-4.84 -0.35000000000000003,-10.76 -3.75,-15.07 S43,394.3699951171875 43.09,388.8999951171875 c0.13,-7.890000000000001 8.51,-12.56 15.2,-16.74 a74.3,74.3 0 0 0 13.65,-11 a20.13,20.13 0 0 0 4.19,-5.62 c1.3900000000000001,-3.08 1.35,-6.6 1.26,-10 q-0.44000000000000006,-16.89 -1.6700000000000002,-33.76 " fill="none" stroke="#3f3d56" stroke-miterlimit="10" stroke-width="4" id="svg_114"/><path d="M88.44999999999999,311.2199951171875 a12.31,12.31 0 0 0 -6.15,-10.09 l-2.7600000000000002,5.45 l0.09000000000000002,-6.6 a12.31,12.31 0 1 0 8.82,11.24 z" fill="#d8a730" id="svg_115"/><path d="M66.49,394.53999511718746 a12.31,12.31 0 0 1 -23.24,-5 a12,12 0 0 1 0.8,-5 a12.32,12.32 0 0 1 23,0.13 l-7.69,6.26 l8.46,-2 A12.24,12.24 0 0 1 66.49,394.53999511718746 z" fill="#d8a730" id="svg_116"/><path d="M60.41,370.6399951171875 a12.31,12.31 0 0 1 -3.9,-24.15 l-0.07,5.07 l2.79,-5.52 h0 a12.31,12.31 0 1 1 1.15,24.6 z" fill="#d8a730" id="svg_117"/><path d="M90.30000000000001,350.7499951171875 a12.31,12.31 0 1 1 5.44,-23 l-2.17,6 L98,329.3699951171875 a12.31,12.31 0 0 1 -7.74,21.37 z" fill="#d8a730" id="svg_118"/><path d="M86.78999999999999,314.4999951171875 c-2.84,0.31000000000000005 -5.6,1.19 -8.46,1.37 s-6,-0.51 -7.78,-2.72 a39.48,39.48 0 0 1 -2.2800000000000002,-4 a8.76,8.76 0 0 0 -3.1,-2.92 a12.31,12.31 0 1 0 23,8.18 C87.72,314.4199951171875 87.25,314.4499951171875 86.78999999999999,314.4999951171875 z" opacity="0.1" id="svg_119"/><path d="M90.30000000000001,350.7499951171875 a12.31,12.31 0 0 1 -11.71,-17.56 a9.11,9.11 0 0 1 2.47,2.48 a41.72,41.72 0 0 0 2.44,4.07 c1.92,2.25 5.2,3 8.17,2.85 s5.84,-1 8.8,-1.25 c0.41000000000000003,0 0.8200000000000001,-0.06000000000000001 1.24,-0.07 A12.31,12.31 0 0 1 90.30000000000001,350.7499951171875 z" opacity="0.1" id="svg_120"/><path d="M60.41,370.6399951171875 a12.31,12.31 0 0 1 -11.81,-17.33 a10,10 0 0 1 2.6100000000000003,2.5 a41.23,41.23 0 0 0 2.67,4.15 c2.07,2.31 5.57,3.13 8.71,3 s6,-0.81 9,-1 A12.33,12.33 0 0 1 60.41,370.6399951171875 z" opacity="0.1" id="svg_121"/><path d="M66.49,394.53999511718746 a12.31,12.31 0 0 1 -23.24,-5 a12,12 0 0 1 0.8,-5 a12.29,12.29 0 0 1 2.7,2.41 c1.17,1.42 1.94,3 3.3,4.37 c2.51,2.47 6.58,3.49 10.19,3.58 A51.7,51.7 0 0 0 66.49,394.53999511718746 z" opacity="0.1" id="svg_122"/><path d="M460.52,335.8899951171875 c-2.6100000000000003,-4.83 0.35000000000000003,-10.75 3.7600000000000002,-15.06 s7.55,-8.8 7.46,-14.29 c-0.12000000000000001,-7.9 -8.5,-12.56 -15.2,-16.74 a74,74 0 0 1 -13.64,-11 a19.78,19.78 0 0 1 -4.2,-5.61 c-1.3800000000000001,-3.09 -1.34,-6.6 -1.26,-10 q0.45,-16.89 1.6700000000000002,-33.76 " fill="none" stroke="#3f3d56" stroke-miterlimit="10" stroke-width="4" id="svg_123"/><path d="M426.39,228.8599951171875 a12.3,12.3 0 0 1 6.14,-10.09 l2.7600000000000002,5.45 l-0.08000000000000002,-6.6 a12.620000000000001,12.620000000000001 0 0 1 4.05,-0.49000000000000005 a12.31,12.31 0 1 1 -12.870000000000001,11.73 z" fill="#d8a730" id="svg_124"/><path d="M448.34,312.1799951171875 a12.31,12.31 0 1 0 -0.5900000000000001,-9.91 l7.69,6.26 l-8.46,-2 A12.24,12.24 0 0 0 448.34,312.1799951171875 z" fill="#d8a730" id="svg_125"/><path d="M454.42,288.2799951171875 a12.31,12.31 0 0 0 3.91,-24.15 l0.06000000000000001,5.07 l-2.79,-5.52 h0 A12.31,12.31 0 0 0 442.7,275.3699951171875 a12.16,12.16 0 0 0 0.53,4.2 A12.3,12.3 0 0 0 454.42,288.2799951171875 z" fill="#d8a730" id="svg_126"/><path d="M424.54,268.3699951171875 a12.31,12.31 0 1 0 -5.45,-23 l2.18,6 l-4.48,-4.29 a12.21,12.21 0 0 0 -4,8.5 a11.91,11.91 0 0 0 0.31000000000000005,3.39 A12.3,12.3 0 0 0 424.54,268.3699951171875 z" fill="#d8a730" id="svg_127"/><path d="M428.05,232.13999511718748 c2.84,0.31000000000000005 5.6,1.19 8.45,1.37 s6,-0.51 7.79,-2.72 a39.4,39.4 0 0 0 2.27,-4 a8.79,8.79 0 0 1 3.11,-2.92 a12.31,12.31 0 1 1 -23,8.17 C427.12,232.0499951171875 427.58,232.08999511718753 428.05,232.13999511718748 z" opacity="0.1" id="svg_128"/><path d="M424.54,268.3699951171875 a12.32,12.32 0 0 0 11.71,-17.56 a9.15,9.15 0 0 0 -2.48,2.48 a41.72,41.72 0 0 1 -2.44,4.07 c-1.9100000000000001,2.25 -5.19,3 -8.16,2.85 s-5.84,-1 -8.8,-1.25 c-0.41000000000000003,0 -0.8300000000000001,-0.06000000000000001 -1.24,-0.07 A12.3,12.3 0 0 0 424.54,268.3699951171875 z" opacity="0.1" id="svg_129"/><path d="M454.42,288.2799951171875 a12.3,12.3 0 0 0 11.81,-17.33 a9.83,9.83 0 0 0 -2.6,2.5 a41.23,41.23 0 0 1 -2.67,4.15 c-2.08,2.31 -5.57,3.13 -8.72,3 s-6,-0.81 -9,-1 A12.3,12.3 0 0 0 454.42,288.2799951171875 z" opacity="0.1" id="svg_130"/><path d="M448.34,312.1799951171875 a12.31,12.31 0 0 0 22.45,-10 a11.82,11.82 0 0 0 -2.7,2.41 c-1.17,1.42 -2,3 -3.3,4.37 c-2.52,2.47 -6.58,3.49 -10.2,3.58 A53.94,53.94 0 0 1 448.34,312.1799951171875 z" opacity="0.1" id="svg_131"/><circle cx="779.72998046875" cy="238.17999267578125" r="99.95999908447266" fill="#3f3d56" id="svg_132"/><path d="M822.64,263.9599951171875 c-3.48,-3.48 -11.85,-8.73 -16,-10.69 c-4.79,-2.3 -6.55,-2.26 -9.94,0.19000000000000003 c-2.8200000000000003,2 -4.65,3.93 -7.890000000000001,3.22 s-9.66,-5.55 -15.870000000000001,-11.74 S761.91,232.3699951171875 761.22,229.07999511718748 s1.21,-5.08 3.23,-7.9 c2.44,-3.39 2.51,-5.15 0.19000000000000003,-9.94 c-2,-4.15 -7.19,-12.5 -10.7,-16 s-4.27,-2.73 -6.19,-2 a35.8,35.8 0 0 0 -5.67,3 c-3.48,2.33 -5.43,4.27 -6.8,7.19 s-2.92,8.34 5.05,22.53 a125.69,125.69 0 0 0 22.1,29.47 l0,0 l0,0 A125.88,125.88 0 0 0 792,277.5699951171875 c14.18,8 19.61,6.41 22.53,5.05 s4.86,-3.29 7.18,-6.8 a35.33,35.33 0 0 0 3,-5.67 C825.37,268.2299951171875 826.15,267.4499951171875 822.64,263.9599951171875 z" fill="#d8a730" id="svg_133"/><path d="M779.73,138.2299951171875 a100,100 0 1 0 99.95,99.95 A100,100 0 0 0 779.73,138.2299951171875 zm0,186.62 a86.67,86.67 0 1 1 86.67,-86.67 A86.67,86.67 0 0 1 779.73,324.8499951171875 z" opacity="0.1" id="svg_134"/><circle cx="550.0800170898438" cy="390.010009765625" r="99.95999908447266" fill="#3f3d56" id="svg_135" class=""/><path d="M606.93,359.80999511718755 L577,390.2599951171875 a0.54,0.54 0 0 0 0,0.78 L598,413.3699951171875 a3.62,3.62 0 0 1 -2.55,6.17 a3.64,3.64 0 0 1 -2.56,-1.06 L572,396.2299951171875 a0.5700000000000001,0.5700000000000001 0 0 0 -0.8,0 L566.11,401.3699951171875 a22.37,22.37 0 0 1 -16,6.73 a22.86,22.86 0 0 1 -16.28,-6.92 l-4.890000000000001,-5 a0.5700000000000001,0.5700000000000001 0 0 0 -0.8,0 l-20.84,22.2 a3.6100000000000003,3.6100000000000003 0 0 1 -5.11,0 a3.6,3.6 0 0 1 0,-5.11 l20.92,-22.28 a0.6000000000000001,0.6000000000000001 0 0 0 0,-0.78 l-29.93,-30.45 a0.55,0.55 0 0 0 -0.9400000000000001,0.39000000000000007 v60.93 a8.92,8.92 0 0 0 8.89,8.89 H599 a8.92,8.92 0 0 0 8.89,-8.89 V360.19999511718754 A0.55,0.55 0 0 0 606.93,359.80999511718755 z" fill="#d8a730" id="svg_136"/><path d="M550.08,400.8699951171875 A15.14,15.14 0 0 0 561,396.3699951171875 l43.59,-44.37 a8.7,8.7 0 0 0 -5.5,-2 H501.15 a8.64,8.64 0 0 0 -5.5,2 L539.25,396.3699951171875 A15.08,15.08 0 0 0 550.08,400.8699951171875 z" fill="#d8a730" id="svg_137"/><path d="M548.82,290.0599951171875 a100,100 0 1 0 99.95,99.95 A100,100 0 0 0 548.82,290.0599951171875 zm0,186.62 a86.67,86.67 0 1 1 86.67,-86.67 A86.67,86.67 0 0 1 548.82,476.67999511718745 z" opacity="0.1" id="svg_138" class=""/><circle cx="312.8500061035156" cy="315.3599853515625" r="99.95999908447266" fill="#3f3d56" id="svg_139"/><path d="M312.85,267.5299951171875 L273,359.4699951171875 l3.72,3.72 l36.14,-15.94 L349,363.18999511718755 l3.72,-3.72 z" fill="#d8a730" id="svg_140"/><path d="M312.85,215.3699951171875 A100,100 0 1 0 412.8,315.3699951171875 A100,100 0 0 0 312.85,215.3699951171875 zm0,186.62 A86.67,86.67 0 1 1 399.52,315.3699951171875 A86.67,86.67 0 0 1 312.85,402.02999511718747 z" opacity="0.1" id="svg_141"/><path d="M836.39,414.3699951171875 c2.6100000000000003,-4.83 -0.35000000000000003,-10.76 -3.7600000000000002,-15.07 s-7.55,-8.79 -7.46,-14.29 c0.12000000000000001,-7.890000000000001 8.5,-12.55 15.2,-16.74 a73.9,73.9 0 0 0 13.64,-11 a19.93,19.93 0 0 0 4.2,-5.61 c1.3800000000000001,-3.09 1.34,-6.6 1.26,-10 q-0.44000000000000006,-16.9 -1.6700000000000002,-33.76 " fill="none" stroke="#3f3d56" stroke-miterlimit="10" stroke-width="4" id="svg_174"/><path d="M870.52,307.2999951171875 a12.29,12.29 0 0 0 -6.14,-10.08 l-2.7600000000000002,5.45 l0.08000000000000002,-6.6 a12.08,12.08 0 0 0 -4.05,-0.49000000000000005 a12.31,12.31 0 1 0 12.870000000000001,11.72 z" fill="#d8a730" id="svg_175"/><path d="M848.57,390.6299951171875 a12.31,12.31 0 1 1 0.5900000000000001,-9.92 l-7.69,6.26 l8.46,-2 A12.24,12.24 0 0 1 848.57,390.6299951171875 z" fill="#d8a730" id="svg_176"/><path d="M842.49,366.7199951171875 a12.31,12.31 0 0 1 -3.91,-24.15 l-0.06000000000000001,5.07 l2.79,-5.51 h0 a12.32,12.32 0 0 1 12.870000000000001,11.73 a12.3,12.3 0 0 1 -11.72,12.870000000000001 z" fill="#d8a730" id="svg_177"/><path d="M872.37,346.8399951171875 a12.31,12.31 0 1 1 5.45,-23 l-2.18,6 l4.48,-4.3 a12.24,12.24 0 0 1 4,8.5 a11.88,11.88 0 0 1 -0.31000000000000005,3.39 A12.31,12.31 0 0 1 872.37,346.8399951171875 z" fill="#d8a730" id="svg_178"/><path d="M868.87,310.5799951171875 c-2.84,0.32000000000000006 -5.61,1.2 -8.46,1.3800000000000001 s-6,-0.51 -7.79,-2.73 a38.2,38.2 0 0 1 -2.27,-4 a8.85,8.85 0 0 0 -3.1,-2.92 a12.31,12.31 0 1 0 23,8.17 C869.79,310.4999951171875 869.33,310.5299951171875 868.87,310.5799951171875 z" opacity="0.1" id="svg_179"/><path d="M872.37,346.8399951171875 a12.32,12.32 0 0 1 -11.71,-17.56 a9.11,9.11 0 0 1 2.48,2.47 a39.47,39.47 0 0 0 2.44,4.07 c1.9100000000000001,2.26 5.19,3 8.16,2.8600000000000003 s5.84,-1 8.8,-1.25 c0.41000000000000003,0 0.8300000000000001,-0.07 1.24,-0.08000000000000002 A12.31,12.31 0 0 1 872.37,346.8399951171875 z" opacity="0.1" id="svg_180"/><path d="M842.49,366.7199951171875 A12.3,12.3 0 0 1 830.68,349.3699951171875 a10.15,10.15 0 0 1 2.6,2.5 c1,1.35 1.55,2.91 2.67,4.15 c2.08,2.3200000000000003 5.57,3.13 8.72,3.06 s6,-0.8200000000000001 9,-1.05 A12.31,12.31 0 0 1 842.49,366.7199951171875 z" opacity="0.1" id="svg_181"/><path d="M848.57,390.6299951171875 a12.32,12.32 0 0 1 -22.45,-10 a12.06,12.06 0 0 1 2.7,2.41 c1.18,1.4300000000000002 1.9500000000000002,3 3.3,4.38 c2.52,2.47 6.58,3.48 10.2,3.58 A53.94,53.94 0 0 0 848.57,390.6299951171875 z" opacity="0.1" id="svg_182"/><path d="M995.3900000000001,566.3699951171875 c2.6100000000000003,-4.83 -0.35000000000000003,-10.76 -3.7600000000000002,-15.07 s-7.55,-8.79 -7.46,-14.29 c0.12000000000000001,-7.890000000000001 8.5,-12.55 15.2,-16.74 a73.9,73.9 0 0 0 13.64,-11 a19.93,19.93 0 0 0 4.2,-5.61 c1.3800000000000001,-3.09 1.34,-6.6 1.26,-10 q-0.43000000000000005,-16.9 -1.6700000000000002,-33.76 " fill="none" stroke="#3f3d56" stroke-miterlimit="10" stroke-width="4" id="svg_183"/><path d="M1029.52,459.29999511718745 a12.29,12.29 0 0 0 -6.14,-10.08 l-2.7600000000000002,5.45 l0.08000000000000002,-6.6 a12.08,12.08 0 0 0 -4,-0.49000000000000005 a12.31,12.31 0 1 0 12.870000000000001,11.72 z" fill="#d8a730" id="svg_184"/><path d="M1007.5699999999999,542.6299951171875 a12.31,12.31 0 1 1 0.5900000000000001,-9.92 l-7.69,6.26 l8.46,-2 A12.24,12.24 0 0 1 1007.5699999999999,542.6299951171875 z" fill="#d8a730" id="svg_185"/><path d="M1001.49,518.7199951171875 a12.31,12.31 0 0 1 -3.91,-24.15 l-0.06000000000000001,5.07 l2.79,-5.51 h0 a12.32,12.32 0 0 1 12.870000000000001,11.73 a12.3,12.3 0 0 1 -11.72,12.870000000000001 z" fill="#d8a730" id="svg_186"/><path d="M1031.37,498.8399951171875 a12.31,12.31 0 1 1 5.45,-23 l-2.18,6 l4.48,-4.3 a12.24,12.24 0 0 1 4,8.5 a11.88,11.88 0 0 1 -0.31000000000000005,3.39 A12.31,12.31 0 0 1 1031.37,498.8399951171875 z" fill="#d8a730" id="svg_187"/><path d="M1027.87,462.57999511718754 c-2.84,0.32000000000000006 -5.61,1.2 -8.46,1.3800000000000001 s-6,-0.51 -7.79,-2.73 a38.2,38.2 0 0 1 -2.27,-4 a8.85,8.85 0 0 0 -3.1,-2.92 a12.31,12.31 0 1 0 23,8.17 C1028.79,462.4999951171875 1028.33,462.52999511718747 1027.87,462.57999511718754 z" opacity="0.1" id="svg_188"/><path d="M1031.37,498.8399951171875 a12.32,12.32 0 0 1 -11.71,-17.56 a9.11,9.11 0 0 1 2.48,2.47 a39.47,39.47 0 0 0 2.44,4.07 c1.9100000000000001,2.26 5.19,3 8.16,2.8600000000000003 s5.84,-1 8.8,-1.25 c0.41000000000000003,0 0.8300000000000001,-0.07 1.24,-0.08000000000000002 A12.31,12.31 0 0 1 1031.37,498.8399951171875 z" opacity="0.1" id="svg_189"/><path d="M1001.49,518.7199951171875 A12.3,12.3 0 0 1 989.6800000000001,501.3699951171875 a10.15,10.15 0 0 1 2.6,2.5 c1,1.35 1.55,2.91 2.67,4.15 c2.08,2.3200000000000003 5.57,3.13 8.72,3.06 s6,-0.8200000000000001 9,-1.05 A12.31,12.31 0 0 1 1001.49,518.7199951171875 z" opacity="0.1" id="svg_190"/><path d="M1007.5699999999999,542.6299951171875 a12.32,12.32 0 0 1 -22.45,-10 a12.06,12.06 0 0 1 2.7,2.41 c1.18,1.4300000000000002 2,3 3.3,4.38 c2.52,2.47 6.58,3.48 10.2,3.58 A53.94,53.94 0 0 0 1007.5699999999999,542.6299951171875 z" opacity="0.1" id="svg_191"/><ellipse cx="451.95001220703125" cy="431.54998779296875" rx="2.190000057220459" ry="2.200000047683716" fill="#e8e8f0" id="svg_206"/><path d="M466.37,434.95999511718753 a7.52,7.52 0 0 1 0,-0.8200000000000001 a9.34,9.34 0 0 1 -2.5700000000000003,-3.55 a11.34,11.34 0 0 1 -8.32,-8.59 a11.05,11.05 0 0 1 -7.63,-4.74 a9.6,9.6 0 0 1 -2.13,-0.06000000000000001 a11.11,11.11 0 0 0 7.35,4.37 a11.37,11.37 0 0 0 8.32,8.58 a9.55,9.55 0 0 0 2.5700000000000003,3.55 c0,0.27 0,0.55 0,0.8300000000000001 a7.34,7.34 0 0 0 7.17,7.46 A7.46,7.46 0 0 1 466.37,434.95999511718753 z" opacity="0.1" id="svg_217"/></g></svg>