<svg xmlns="http://www.w3.org/2000/svg" data-name="Layer 1" width="444" height="560"><rect id="backgroundrect" width="100%" height="100%" x="0" y="0" fill="none" stroke="none" class="" style=""/><title>sync_files</title><g class="currentLayer" style=""><title>Layer 1</title><path d="M9,0 a9.01047,9.01047 0 0 0 -9,9 v500 a9.01016,9.01016 0 0 0 9,9 H379 a9.00984,9.00984 0 0 0 9,-9 v-500 a9.01016,9.01016 0 0 0 -9,-9 z" fill="#e6e6e6" id="svg_14" class=""/><path d="M19.929660000000013,14 A9.08459,9.08459 0 0 0 11,23.21212 V498.78788 A9.08459,9.08459 0 0 0 19.929660000000013,508 H367.07034 A9.08459,9.08459 0 0 0 376,498.78788 V23.21212 A9.08459,9.08459 0 0 0 367.07034,14 z" fill="#fff" id="svg_15" class=""/><path d="M74.25,83.18261999999999 a4.00458,4.00458 0 0 0 -4,4 V105.54149999999998 a4.00458,4.00458 0 0 0 4,4 h236 a4.00427,4.00427 0 0 0 4,-4 V87.18261999999999 a4.00427,4.00427 0 0 0 -4,-4 z" fill="#cccccc" id="svg_16" class="" fill-opacity="1"/><path d="M72.75,143.93900000000002 a1.00131,1.00131 0 0 0 -1,1 v7.167 a1.0013,1.0013 0 0 0 1,1 h240 a1.001,1.001 0 0 0 1,-1 v-7.167 a1.001,1.001 0 0 0 -1,-1 z" fill="#ccc" id="svg_17" class=""/><path d="M72.75,167.23388999999997 a1.0013,1.0013 0 0 0 -1,1 v7.167 a1.0013,1.0013 0 0 0 1,1 h240 a1.001,1.001 0 0 0 1,-1 v-7.167 a1.001,1.001 0 0 0 -1,-1 z" fill="#ccc" id="svg_18" class=""/><path d="M72.75,190.52881000000002 a1.0013,1.0013 0 0 0 -1,1 v7.1665 a1.0013,1.0013 0 0 0 1,1 h240 a1.001,1.001 0 0 0 1,-1 v-7.1665 a1.001,1.001 0 0 0 -1,-1 z" fill="#ccc" id="svg_19" class=""/><path d="M72.25,237.06099999999998 a1.0013,1.0013 0 0 0 -1,1 v7.1665 a1.0013,1.0013 0 0 0 1,1 h240 a1.001,1.001 0 0 0 1,-1 V238.06099999999998 a1.001,1.001 0 0 0 -1,-1 z" fill="#ccc" id="svg_20" class=""/><path d="M72.25,260.356 a1.0013,1.0013 0 0 0 -1,1 v7.1665 a1.0013,1.0013 0 0 0 1,1 h240 a1.001,1.001 0 0 0 1,-1 V261.356 a1.001,1.001 0 0 0 -1,-1 z" fill="#ccc" id="svg_21" class=""/><path d="M72.25,283.65039 a1.001,1.001 0 0 0 -1,1 v7.167 a1.001,1.001 0 0 0 1,1 h240 a1.00067,1.00067 0 0 0 1,-1 v-7.167 a1.00067,1.00067 0 0 0 -1,-1 z" fill="#ccc" id="svg_22" class=""/><path d="M72.25,307.06055000000003 a1.001,1.001 0 0 0 -1,1 v7.167 a1.001,1.001 0 0 0 1,1 h240 a1.00067,1.00067 0 0 0 1,-1 v-7.167 a1.00067,1.00067 0 0 0 -1,-1 z" fill="#ccc" id="svg_23" class=""/><path d="M72.25,330.35546999999997 a1.001,1.001 0 0 0 -1,1 v7.167 a1.001,1.001 0 0 0 1,1 h240 a1.00067,1.00067 0 0 0 1,-1 v-7.167 a1.00067,1.00067 0 0 0 -1,-1 z" fill="#ccc" id="svg_24" class=""/><path d="M72.25,353.65039 a1.001,1.001 0 0 0 -1,1 v7.167 a1.001,1.001 0 0 0 1,1 h240 a1.00067,1.00067 0 0 0 1,-1 v-7.167 a1.00067,1.00067 0 0 0 -1,-1 z" fill="#ccc" id="svg_25" class=""/><path d="M72.25,377.06055000000003 a1.001,1.001 0 0 0 -1,1 v7.167 a1.001,1.001 0 0 0 1,1 h240 a1.00067,1.00067 0 0 0 1,-1 v-7.167 a1.00067,1.00067 0 0 0 -1,-1 z" fill="#ccc" id="svg_26" class=""/><path d="M72.25,400.35546999999997 a1.001,1.001 0 0 0 -1,1 v7.167 a1.001,1.001 0 0 0 1,1 h240 a1.00067,1.00067 0 0 0 1,-1 v-7.167 a1.00067,1.00067 0 0 0 -1,-1 z" fill="#ccc" id="svg_27" class=""/><path d="M72.25,423.65039 a1.001,1.001 0 0 0 -1,1 v7.167 a1.001,1.001 0 0 0 1,1 h240 a1.00067,1.00067 0 0 0 1,-1 v-7.167 a1.00067,1.00067 0 0 0 -1,-1 z" fill="#ccc" id="svg_28" class=""/><circle cx="371" cy="487" r="73" fill="#43a047" id="svg_29" class="" fill-opacity="1"/><polygon points="364.04400634765625,517.8150024414062 342.1940002441406,489.7230224609375 354.8999938964844,479.8389892578125 365.2460021972656,493.1409912109375 400.19500732421875,456.24798583984375 411.88201904296875,467.32000732421875 364.04400634765625,517.8150024414062 " fill="#fff" id="svg_30" class=""/></g></svg>