<svg xmlns="http://www.w3.org/2000/svg" data-name="Layer 1" width="388" height="518" style=""><rect id="backgroundrect" width="100%" height="100%" x="0" y="0" fill="none" stroke="none" class="" style=""/><title>sync_files</title><g class="currentLayer" style=""><title>Layer 1</title><path d="M9.000000537065887,0 a9.01047,9.01047 0 0 0 -9,9 v500 a9.01016,9.01016 0 0 0 9,9 H379.0000005370659 a9.00984,9.00984 0 0 0 9,-9 v-500 a9.01016,9.01016 0 0 0 -9,-9 z" fill="#e6e6e6" id="svg_14" class=""/><path d="M19.9296605370659,14 A9.08459,9.08459 0 0 0 11.000000537065887,23.21212 V498.78788 A9.08459,9.08459 0 0 0 19.9296605370659,508 H367.0703405370659 A9.08459,9.08459 0 0 0 376.0000005370659,498.78788 V23.21212 A9.08459,9.08459 0 0 0 367.0703405370659,14 z" fill="#fff" id="svg_15" class=""/><path d="M74.25000053706589,83.18261999999999 a4.00458,4.00458 0 0 0 -4,4 V105.54149999999998 a4.00458,4.00458 0 0 0 4,4 h236 a4.00427,4.00427 0 0 0 4,-4 V87.18261999999999 a4.00427,4.00427 0 0 0 -4,-4 z" fill="#cccccc" id="svg_16" class="" fill-opacity="1"/><path d="M72.75000053706589,143.93900000000002 a1.00131,1.00131 0 0 0 -1,1 v7.167 a1.0013,1.0013 0 0 0 1,1 h240 a1.001,1.001 0 0 0 1,-1 v-7.167 a1.001,1.001 0 0 0 -1,-1 z" fill="#ccc" id="svg_17" class=""/><path d="M72.75000053706589,167.23388999999997 a1.0013,1.0013 0 0 0 -1,1 v7.167 a1.0013,1.0013 0 0 0 1,1 h240 a1.001,1.001 0 0 0 1,-1 v-7.167 a1.001,1.001 0 0 0 -1,-1 z" fill="#ccc" id="svg_18" class=""/><path d="M72.75000053706589,190.52881000000002 a1.0013,1.0013 0 0 0 -1,1 v7.1665 a1.0013,1.0013 0 0 0 1,1 h240 a1.001,1.001 0 0 0 1,-1 v-7.1665 a1.001,1.001 0 0 0 -1,-1 z" fill="#ccc" id="svg_19" class=""/><path d="M72.25000053706589,237.06099999999998 a1.0013,1.0013 0 0 0 -1,1 v7.1665 a1.0013,1.0013 0 0 0 1,1 h240 a1.001,1.001 0 0 0 1,-1 V238.06099999999998 a1.001,1.001 0 0 0 -1,-1 z" fill="#ccc" id="svg_20" class=""/><path d="M72.25000053706589,260.356 a1.0013,1.0013 0 0 0 -1,1 v7.1665 a1.0013,1.0013 0 0 0 1,1 h240 a1.001,1.001 0 0 0 1,-1 V261.356 a1.001,1.001 0 0 0 -1,-1 z" fill="#ccc" id="svg_21" class=""/><path d="M72.25000053706589,283.65039 a1.001,1.001 0 0 0 -1,1 v7.167 a1.001,1.001 0 0 0 1,1 h240 a1.00067,1.00067 0 0 0 1,-1 v-7.167 a1.00067,1.00067 0 0 0 -1,-1 z" fill="#ccc" id="svg_22" class=""/><path d="M72.25000053706589,307.06055000000003 a1.001,1.001 0 0 0 -1,1 v7.167 a1.001,1.001 0 0 0 1,1 h240 a1.00067,1.00067 0 0 0 1,-1 v-7.167 a1.00067,1.00067 0 0 0 -1,-1 z" fill="#ccc" id="svg_23" class=""/><path d="M72.25000053706589,330.35546999999997 a1.001,1.001 0 0 0 -1,1 v7.167 a1.001,1.001 0 0 0 1,1 h240 a1.00067,1.00067 0 0 0 1,-1 v-7.167 a1.00067,1.00067 0 0 0 -1,-1 z" fill="#ccc" id="svg_24" class=""/><path d="M72.25000053706589,353.65039 a1.001,1.001 0 0 0 -1,1 v7.167 a1.001,1.001 0 0 0 1,1 h240 a1.00067,1.00067 0 0 0 1,-1 v-7.167 a1.00067,1.00067 0 0 0 -1,-1 z" fill="#ccc" id="svg_25" class=""/><path d="M72.25000053706589,377.06055000000003 a1.001,1.001 0 0 0 -1,1 v7.167 a1.001,1.001 0 0 0 1,1 h240 a1.00067,1.00067 0 0 0 1,-1 v-7.167 a1.00067,1.00067 0 0 0 -1,-1 z" fill="#ccc" id="svg_26" class=""/><path d="M72.25000053706589,400.35546999999997 a1.001,1.001 0 0 0 -1,1 v7.167 a1.001,1.001 0 0 0 1,1 h240 a1.00067,1.00067 0 0 0 1,-1 v-7.167 a1.00067,1.00067 0 0 0 -1,-1 z" fill="#ccc" id="svg_27" class=""/><path d="M72.25000053706589,423.65039 a1.001,1.001 0 0 0 -1,1 v7.167 a1.001,1.001 0 0 0 1,1 h240 a1.00067,1.00067 0 0 0 1,-1 v-7.167 a1.00067,1.00067 0 0 0 -1,-1 z" fill="#ccc" id="svg_28" class=""/></g></svg>