<svg xmlns="http://www.w3.org/2000/svg" data-name="Layer 1" width="1074" height="428"><rect id="backgroundrect" width="100%" height="100%" x="0" y="0" fill="none" stroke="none" class="" style=""/><title>page not found</title><g class="currentLayer" style=""><title>Layer 1</title><ellipse cx="540.6426794372383" cy="393.32752990722656" rx="527.5" ry="34.921600341796875" fill="#f2f2f2" id="svg_1" class=""/><path d="M520.4249359655586,11.0278764746094 c-85.94407,0 -147.651,55.13938 -147.651,183.79791 c0,145.813 61.70691,184.41057 147.651,184.41057 s151.327,-42.27352 151.327,-184.41057 C671.7518859655586,42.88618647460936 606.3690059655586,11.0278764746094 520.4249359655586,11.0278764746094 zm0.5649500000000002,319.80837 c-59.52686,0 -90.62592,-34.92288 -90.62592,-135.9163 c0,-89.11185 32.37209,-136.10461 91.899,-136.10461 s91.899,30.86774 91.899,136.10461 C614.1618759655586,293.36730647460934 580.5167459655586,330.8362464746094 520.9898859655585,330.8362464746094 z" fill="#2f2e41" id="svg_2" class=""/><path d="M321.3105559655586,277.53484647460937 H285.7762459655586 V172.89546647460935 A20.95585,20.95585 0 0 0 264.8204159655586,151.93963647460936 h-8.32638 a20.95585,20.95585 0 0 0 -20.95586,20.95585 V277.53484647460937 H135.30809596555858 a11.96327,11.96327 0 0 1 -10.57763,-17.552 l106.0824,-200.78034 A20.95585,20.95585 0 0 0 221.23248596555857,30.46363647460936 l-6.26231,-2.9572000000000003 a20.95585,20.95585 0 0 0 -27.4293,9.07005 L58.15940596555858,278.6090364746094 a28.41578,28.41578 0 0 0 -3.35584,13.39612 v0 a28.41583,28.41583 0 0 0 28.41584,28.41583 H235.5381759655586 v66.16727 a25.119,25.119 0 0 0 25.119,25.119 h0.00005000000000000004 a25.119,25.119 0 0 0 25.119,-25.119 V320.42102647460933 h35.53428 a21.44307,21.44307 0 0 0 21.44307,-21.44307 v0 A21.44307,21.44307 0 0 0 321.3105559655586,277.53484647460937 z" fill="#dc7037" id="svg_3" class=""/><path d="M979.3070759655586,277.53484647460937 h-35.53428 V172.89546647460935 A20.95585,20.95585 0 0 0 922.8169359655585,151.93963647460936 h-8.32638 a20.95585,20.95585 0 0 0 -20.95586,20.95585 V277.53484647460937 H793.3046159655586 a11.96326,11.96326 0 0 1 -10.57763,-17.552 L888.8093759655586,59.20254647460939 A20.95586,20.95586 0 0 0 879.2290059655586,30.46363647460936 l-6.26231,-2.9572000000000003 a20.95586,20.95586 0 0 0 -27.42931,9.07005 L716.1559259655586,278.6090364746094 a28.41578,28.41578 0 0 0 -3.35584,13.39612 v0 a28.41583,28.41583 0 0 0 28.41583,28.41583 H893.5346959655586 v66.16727 a25.119,25.119 0 0 0 25.119,25.119 h0 a25.119,25.119 0 0 0 25.119,-25.119 V320.42102647460933 h35.53428 a21.44307,21.44307 0 0 0 21.44307,-21.44307 v0 A21.44307,21.44307 0 0 0 979.3070759655586,277.53484647460937 z" fill="#dc7037" id="svg_4" class=""/><path d="M331.11311596555856,265.2816364746094 H295.57882596555856 V160.6422764746094 a20.95585,20.95585 0 0 0 -20.95585,-20.95586 h-8.32638 a20.95586,20.95586 0 0 0 -20.95586,20.95586 V265.2816364746094 H145.11065596555858 a11.96327,11.96327 0 0 1 -10.57763,-17.552 L240.61541596555855,46.949356474609374 a20.95586,20.95586 0 0 0 -9.58037,-28.73893 l-6.26231,-2.9572000000000003 a20.95586,20.95586 0 0 0 -27.42931,9.07 L67.96196596555856,266.3558364746094 a28.41582,28.41582 0 0 0 -3.35584,13.39613 v0 a28.41583,28.41583 0 0 0 28.41583,28.41583 H245.34073596555857 v66.16727 a25.119,25.119 0 0 0 25.119,25.119 h0.00005000000000000004 a25.119,25.119 0 0 0 25.119,-25.119 V308.16783647460943 h35.53429 a21.44307,21.44307 0 0 0 21.44307,-21.44307 v0 A21.44307,21.44307 0 0 0 331.11311596555856,265.2816364746094 z" fill="none" stroke="#3f3d56" stroke-miterlimit="10" id="svg_5" class=""/><path d="M997.6868659655586,265.2816364746094 h-35.53428 V160.6422764746094 a20.95586,20.95586 0 0 0 -20.95586,-20.95586 H932.8703459655586 a20.95586,20.95586 0 0 0 -20.95586,20.95586 V265.2816364746094 H811.6844059655585 a11.96327,11.96327 0 0 1 -10.57763,-17.552 L907.1891659655586,46.949356474609374 a20.95586,20.95586 0 0 0 -9.58037,-28.73893 l-6.26231,-2.9572000000000003 a20.95586,20.95586 0 0 0 -27.42931,9.07 L734.5357159655586,266.3558364746094 a28.41582,28.41582 0 0 0 -3.35584,13.39613 v0 a28.41583,28.41583 0 0 0 28.41583,28.41583 H911.9144859655586 v66.16727 a25.119,25.119 0 0 0 25.119,25.119 h0 a25.119,25.119 0 0 0 25.119,-25.119 V308.16783647460943 h35.53428 a21.44307,21.44307 0 0 0 21.44307,-21.44307 v0 A21.44307,21.44307 0 0 0 997.6868659655586,265.2816364746094 z" fill="none" stroke="#3f3d56" stroke-miterlimit="10" id="svg_6" class=""/><path d="M540.0300459655585,0.000006474609392626007 c-85.94407,0 -147.651,55.13937 -147.651,183.79791 c0,145.813 61.70691,184.41057 147.651,184.41057 s151.327,-42.27352 151.327,-184.41057 C691.3569959655586,31.85830647460938 625.9741159655586,0.000006474609392626007 540.0300459655585,0.000006474609392626007 zm0.5650000000000002,319.80836 c-59.52686,0 -90.62592,-34.92287 -90.62592,-135.91629 c0,-89.11185 32.37209,-136.10461 91.899,-136.10461 s91.899,30.86774 91.899,136.10461 C633.7669859655585,282.33942647460935 600.1218559655586,319.80836647460933 540.5949959655586,319.80836647460933 z" fill="none" stroke="#3f3d56" stroke-miterlimit="10" id="svg_7" class=""/><path d="M1006.8630559655585,263.56777647460933 a20.81252,20.81252 0 1 0 2.7716000000000003,-39.91524 l0.52093,10.7122 l-5.06814,-9.18045 a20.734,20.734 0 0 0 -10.68367,11.72261 a20.40847,20.40847 0 0 0 -1.19713,5.62986 A20.80856,20.80856 0 0 0 1006.8630559655585,263.56777647460933 z" fill="#57b894" id="svg_27" class=""/><path d="M1031.9404059655585,387.81119647460935 c-1.78906,-9.11027 5.9633,-17.1868 13.62086,-22.43651 s16.605,-10.40779 19.21775,-19.31684 c3.755,-12.80387 -7.43,-24.52981 -16.13564,-34.64176 a125.30044,125.30044 0 0 1 -16.52359,-24.55738 c-1.81107,-3.5324999999999998 -3.47558,-7.22528 -3.95221,-11.16626 c-0.6864100000000002,-5.67546 1.13693,-11.32309 2.9739,-16.73673 q9.17925,-27.05169 19.62843,-53.65005 " fill="none" stroke="#3f3d56" stroke-miterlimit="10" id="svg_28" class=""/><path d="M1007.7201759655586,260.80983647460937 a20.81252,20.81252 0 1 0 2.7716000000000003,-39.91524 l0.52093,10.7122 l-5.06815,-9.18045 a20.734,20.734 0 0 0 -10.68366,11.72261 a20.40847,20.40847 0 0 0 -1.19713,5.62986 A20.80855,20.80855 0 0 0 1007.7201759655586,260.80983647460937 z" fill="none" stroke="#3f3d56" stroke-miterlimit="10" id="svg_29" class=""/><path d="M1029.3966059655586,201.6062964746094 a20.78819,20.78819 0 0 1 14.97993,-13.19764 l1.71361,10.18378 l3.177,-10.69566 a20.81,20.81 0 1 1 -19.87057,13.70952 z" fill="#57b894" id="svg_30" class=""/><path d="M1030.5394259655586,197.92903647460935 a20.7882,20.7882 0 0 1 14.97993,-13.19763 l1.71361,10.18378 l3.177,-10.69567 a20.81,20.81 0 1 1 -19.87057,13.70952 z" fill="none" stroke="#3f3d56" stroke-miterlimit="10" id="svg_31" class=""/><path d="M1044.9899859655586,311.62248647460933 a20.81,20.81 0 0 0 18.419,-37.02267 l-2.44121,8.21926 l-1.7310500000000002,-10.30382 a0.3618300000000001,0.3618300000000001 0 0 0 -0.05300000000000002,-0.020100000000000007 a20.81113,20.81113 0 1 0 -14.1938,39.12733 z" fill="#57b894" id="svg_32" class=""/><path d="M1045.9802459655587,307.8978064746094 a20.81,20.81 0 0 0 18.419,-37.02267 l-2.44121,8.21926 l-1.7310500000000002,-10.30382 a0.3621000000000001,0.3621000000000001 0 0 0 -0.05300000000000002,-0.020100000000000007 a20.81113,20.81113 0 1 0 -14.1938,39.12733 z" fill="none" stroke="#3f3d56" stroke-miterlimit="10" id="svg_33" class=""/><path d="M1023.3230659655585,346.18511647460934 a20.80131,20.80131 0 1 0 4.01058,-16.29737 l9.27267,13.95654 l-12.66994,-7.40768 A20.61638,20.61638 0 0 0 1023.3230659655585,346.18511647460934 z" fill="#57b894" id="svg_34" class=""/><path d="M1024.1801859655586,343.4271764746094 a20.80131,20.80131 0 1 0 4.01058,-16.29737 l9.27267,13.95655 l-12.66994,-7.40769 A20.61626,20.61626 0 0 0 1024.1801859655586,343.4271764746094 z" fill="none" stroke="#3f3d56" stroke-miterlimit="10" id="svg_35" class=""/><path d="M9.006705965558567,314.26688647460935 a13.67421,13.67421 0 1 0 1.8210000000000002,-26.225 l0.3422700000000002,7.03811 l-3.32987,-6.03172 a13.622630000000001,13.622630000000001 0 0 0 -7.01936,7.702 a13.40883,13.40883 0 0 0 -0.78654,3.6989300000000007 A13.6716,13.6716 0 0 0 9.006705965558567,314.26688647460935 z" fill="#57b894" id="svg_36" class=""/><path d="M25.48298596555857,395.8970764746093 c-1.17545,-5.98561 3.918,-11.292 8.94915,-14.7412 s10.90978,-6.8381 12.62642,-12.691510000000001 c2.46711,-8.41238 -4.88167,-16.11653 -10.601420000000001,-22.76027 A82.32442,82.32442 0 0 1 25.600845965558577,329.5694464746093 a22.20962,22.20962 0 0 1 -2.59668,-7.33643 c-0.451,-3.72888 0.7470000000000002,-7.43947 1.95391,-10.99634 q6.03093,-17.77346 12.89623,-35.24906 " fill="none" stroke="#3f3d56" stroke-miterlimit="10" id="svg_37" class=""/><path d="M9.569855965558574,312.4548664746094 a13.6742,13.6742 0 1 0 1.8210000000000002,-26.225 l0.3422700000000002,7.03812 L8.403245965558568,287.23621647460936 a13.62262,13.62262 0 0 0 -7.01936,7.702 a13.40912,13.40912 0 0 0 -0.78654,3.69892 A13.67158,13.67158 0 0 0 9.569855965558574,312.4548664746094 z" fill="none" stroke="#3f3d56" stroke-miterlimit="10" id="svg_38" class=""/><path d="M23.811655965558572,273.5570664746094 a13.65822,13.65822 0 0 1 9.84209,-8.67109 l1.12587,6.69093 l2.08737,-7.02725 a13.67252,13.67252 0 1 1 -13.05533,9.00741 z" fill="#57b894" id="svg_39" class=""/><path d="M24.562515965558575,271.14103647460934 a13.65822,13.65822 0 0 1 9.84209,-8.67108 l1.12587,6.69093 L37.61784596555857,262.1336364746094 a13.67252,13.67252 0 1 1 -13.05533,9.0074 z" fill="none" stroke="#3f3d56" stroke-miterlimit="10" id="svg_40" class=""/><path d="M34.056795965558564,345.83970647460933 a13.67255,13.67255 0 0 0 12.10164,-24.32457 l-1.60392,5.4002 l-1.13733,-6.76979 a0.23800000000000004,0.23800000000000004 0 0 0 -0.03480000000000002,-0.013200000000000007 a13.67329,13.67329 0 1 0 -9.32559,25.70736 z" fill="#57b894" id="svg_41" class=""/><path d="M34.70738596555857,343.3925264746093 a13.67255,13.67255 0 0 0 12.10164,-24.32457 l-1.60392,5.4002 l-1.13733,-6.7698 a0.23800000000000004,0.23800000000000004 0 0 0 -0.03480000000000002,-0.013200000000000007 a13.67329,13.67329 0 1 0 -9.32559,25.70737 z" fill="none" stroke="#3f3d56" stroke-miterlimit="10" id="svg_42" class=""/><path d="M19.821245965558575,368.5479864746094 a13.66684,13.66684 0 1 0 2.6350000000000002,-10.70767 l6.09231,9.16971 l-8.32438,-4.867 A13.54535,13.54535 0 0 0 19.821245965558575,368.5479864746094 z" fill="#57b894" id="svg_43" class=""/><path d="M20.384375965558576,366.7359664746094 a13.66684,13.66684 0 1 0 2.6350000000000002,-10.70767 l6.09231,9.16971 l-8.32439,-4.867 A13.54535,13.54535 0 0 0 20.384375965558576,366.7359664746094 z" fill="none" stroke="#3f3d56" stroke-miterlimit="10" id="svg_44" class=""/><ellipse cx="480.94526122434763" cy="163.13365173339844" rx="17" ry="22" fill="#2f2e41" id="svg_45" class=""/><ellipse cx="573.4452307067695" cy="163.63365173339844" rx="17" ry="22" fill="#2f2e41" id="svg_46" class=""/><path d="M560.4452459655586,228.63363647460938 c0,9.94 -13.88,18 -31,18 s-31,-8.06 -31,-18 c0,-8.61 10.41,-15.81 24.32,-17.57 a50.10353,50.10353 0 0 1 6.68,-0.4300000000000001 a50.69869,50.69869 0 0 1 11.13,1.2 C552.1952459655586,214.42363647460934 560.4452459655586,220.9736364746094 560.4452459655586,228.63363647460938 z" fill="#2f2e41" id="svg_47" class=""/><ellipse cx="484.94526122434763" cy="158.13365173339844" rx="17" ry="22" fill="none" stroke="#3f3d56" stroke-miterlimit="10" id="svg_48" class=""/><ellipse cx="577.4452307067695" cy="158.63365173339844" rx="17" ry="22" fill="none" stroke="#3f3d56" stroke-miterlimit="10" id="svg_49" class=""/><ellipse cx="533.4452307067695" cy="223.63365173339844" rx="31" ry="18" fill="none" stroke="#3f3d56" stroke-miterlimit="10" id="svg_50" class=""/><path d="M540.9452459655586,213.33363647460942 a4.93658,4.93658 0 0 1 -1.32,3.392 A4.33873,4.33873 0 0 1 536.4452459655586,218.13363647460938 h-10 a4.66433,4.66433 0 0 1 -4.5,-4.8 a4.90458,4.90458 0 0 1 0.8200000000000002,-2.74134 A47.02,47.02 0 0 1 529.4452459655586,210.13363647460938 a47.66454,47.66454 0 0 1 11.13,1.28 A5.06656,5.06656 0 0 1 540.9452459655586,213.33363647460942 z" fill="#fff" id="svg_51" class=""/><circle cx="484.94526122434763" cy="152.13365173339844" r="5" fill="#fff" id="svg_52" class=""/><circle cx="577.9452307067695" cy="152.13365173339844" r="5" fill="#fff" id="svg_53" class=""/><circle cx="582.9452307067695" cy="199.13365173339844" r="5" fill="#dc7037" opacity="0.3" id="svg_54" class=""/><circle cx="460.94526122434763" cy="199.13365173339844" r="5" fill="#dc7037" opacity="0.3" id="svg_55" class=""/></g></svg>